# Blender v2.79 (sub 0) OBJ File: ''
# www.blender.org
mtllib Asteroid1new.mtl
o GeoSphere001
v 0.000000 0.090600 0.000000
v 5.000000 1.869400 0.000000
v 1.382000 2.236101 -4.253300
v -4.723000 0.328000 -2.628700
v -3.618000 0.045499 4.492400
v 1.382000 2.236099 4.253301
v 3.618000 -2.236100 2.628700
v 3.618000 -2.236099 -2.628700
v -1.382000 -0.661700 -2.925900
v -4.472100 -2.236100 -0.000000
v -1.382000 -2.236101 4.253300
v -4.039100 -4.081400 -0.000001
vt 0.136700 0.943100
vt -0.246100 0.665900
vt -0.044100 0.693300
vt 0.168100 0.570100
vt 0.387000 0.553000
vt 0.546500 0.701100
vt 1.136700 0.943100
vt 0.753900 0.665900
vt 0.650600 0.405400
vt 0.856400 0.408300
vt 0.955900 0.693300
vt 1.073700 0.524400
vt 0.073700 0.524400
vt 0.245900 0.411700
vt 0.443900 0.407800
vt 0.245400 0.294000
vt -0.143600 0.408300
vt -0.754600 0.294000
vt -0.349400 0.405400
vn -0.2328 0.9714 0.0467
vn 0.7754 0.6314 0.0000
vn 0.0464 0.6894 -0.7229
vn -0.7499 0.3290 -0.5739
vn -0.6571 0.3219 0.6816
vn 0.1267 0.7777 0.6157
vn 0.6533 -0.5688 0.4996
vn 0.5698 -0.5863 -0.5758
vn -0.1850 -0.4488 -0.8743
vn -0.9537 -0.2848 -0.0968
vn -0.0930 -0.6033 0.7921
vn -0.6114 -0.7830 -0.1148
usemtl Material__25
s 1
f 1/1/1 2/2/2 3/3/3
f 1/1/1 3/3/3 4/4/4
f 1/1/1 4/4/4 5/5/5
f 1/1/1 5/5/5 6/6/6
f 1/7/1 6/6/6 2/8/2
f 2/8/2 7/9/7 8/10/8
f 3/11/3 8/10/8 9/12/9
f 4/4/4 9/13/9 10/14/10
f 5/5/5 10/14/10 11/15/11
f 6/6/6 11/15/11 7/9/7
f 8/10/8 3/11/3 2/8/2
f 9/13/9 4/4/4 3/3/3
f 10/14/10 5/5/5 4/4/4
f 11/15/11 6/6/6 5/5/5
f 7/9/7 2/8/2 6/6/6
f 12/16/12 9/13/9 8/17/8
f 12/16/12 10/14/10 9/13/9
f 12/16/12 11/15/11 10/14/10
f 12/16/12 7/9/7 11/15/11
f 12/18/12 8/17/8 7/19/7
