# Blender v2.79 (sub 0) OBJ File: ''
# www.blender.org
mtllib Asteroid2new.mtl
o GeoSphere001.001
v 0.000000 5.015900 0.000001
v 2.715700 1.869400 0.000000
v 1.382000 2.236101 -4.253300
v -4.723000 0.328000 -2.628700
v -3.618000 0.045500 0.352700
v 1.382000 2.236099 4.253301
v 3.618000 -2.236100 2.628700
v 5.020800 -2.236099 -2.628700
v -1.382000 -0.661700 -2.925900
v -4.472100 -2.236100 -0.000000
v 0.040100 -0.108600 2.309100
v 2.667300 -4.081400 -0.000001
vt 0.136700 0.990200
vt -0.242600 0.762600
vt -0.044100 0.693300
vt 0.168100 0.570100
vt 0.259900 0.580100
vt 0.546500 0.701100
vt 1.136700 0.990200
vt 0.757400 0.762600
vt 0.650600 0.405400
vt 0.831600 0.426700
vt 0.955900 0.693300
vt 1.073700 0.524400
vt 0.073700 0.524400
vt 0.245900 0.411700
vt 0.492900 0.613200
vt 0.757500 0.215100
vt 1.245900 0.411700
vt -0.242500 0.215100
vn -0.0479 0.9965 0.0690
vn 0.8400 0.5402 0.0507
vn 0.2563 0.4311 -0.8652
vn -0.8493 0.0853 -0.5210
vn -0.7259 0.2951 0.6213
vn 0.1514 0.3594 0.9208
vn 0.5139 -0.4050 0.7562
vn 0.7915 -0.3221 -0.5193
vn -0.1730 -0.5433 -0.8216
vn -0.7572 -0.6117 0.2293
vn -0.3612 -0.4663 0.8076
vn 0.0950 -0.9932 0.0671
usemtl Material__25.001
s 1
f 1/1/1 2/2/2 3/3/3
f 1/1/1 3/3/3 4/4/4
f 1/1/1 4/4/4 5/5/5
f 1/1/1 5/5/5 6/6/6
f 1/7/1 6/6/6 2/8/2
f 2/8/2 7/9/7 8/10/8
f 3/11/3 8/10/8 9/12/9
f 4/4/4 9/13/9 10/14/10
f 5/5/5 10/14/10 11/15/11
f 6/6/6 11/15/11 7/9/7
f 8/10/8 3/11/3 2/8/2
f 9/13/9 4/4/4 3/3/3
f 10/14/10 5/5/5 4/4/4
f 11/15/11 6/6/6 5/5/5
f 7/9/7 2/8/2 6/6/6
f 12/16/12 9/12/9 8/10/8
f 12/16/12 10/17/10 9/12/9
f 12/18/12 11/15/11 10/14/10
f 12/16/12 7/9/7 11/15/11
f 12/16/12 8/10/8 7/9/7
