# Blender v2.79 (sub 0) OBJ File: ''
# www.blender.org
mtllib Ship1.mtl
o Ship
v -2.500000 -1.000000 2.500000
v 0.000000 -1.000000 -2.500000
v 2.500000 -1.000000 2.500000
v -1.445000 -1.000001 4.435700
v 1.445000 -1.000001 4.435700
v 1.445000 0.999999 4.435700
v -1.445000 0.999999 4.435700
v 0.000000 1.000000 -2.500000
v 2.500000 1.000000 2.500000
v -2.500000 1.000000 2.500000
vt 1.000000 0.279100
vt 0.500000 1.000000
vt 0.000000 0.279100
vt 0.211000 0.000000
vt 0.789000 0.000000
vt 0.789000 1.000000
vt 0.211000 1.000000
vt 0.279100 0.000000
vt 1.000000 0.000000
vt 1.000000 1.000000
vt 0.279100 1.000000
vt 0.000000 0.000000
vt 0.720900 0.000000
vt 0.720900 1.000000
vt 0.000000 1.000000
vt 0.211000 0.000000
vt 0.789000 0.000000
vt 0.000000 1.000000
vt 0.000000 0.000000
vt 0.211000 0.000000
vt 0.789000 0.000000
vt 1.000000 0.279100
vt 0.000000 0.279100
vt 1.000000 0.000000
vt 1.000000 1.000000
vt 0.500000 1.000000
vn 0.0000 -1.0000 -0.0000
vn 0.0000 0.0000 1.0000
vn 0.8944 0.0000 -0.4472
vn -0.8944 0.0000 -0.4472
vn 0.8781 -0.0000 0.4786
vn 0.0000 1.0000 0.0000
vn -0.8781 -0.0000 0.4786
usemtl Material__27
s 1
f 1/1/1 2/2/1 3/3/1
f 4/4/2 5/5/2 6/6/2
f 6/6/2 7/7/2 4/4/2
f 3/8/3 2/9/3 8/10/3
f 8/10/3 9/11/3 3/8/3
f 2/12/4 1/13/4 10/14/4
f 10/14/4 8/15/4 2/12/4
f 5/16/1 4/17/1 1/1/1
f 1/1/1 3/3/1 5/16/1
f 6/18/5 5/19/5 3/8/5
f 3/8/5 9/11/5 6/18/5
f 7/20/6 6/21/6 9/22/6
f 9/22/6 10/23/6 7/20/6
f 4/24/7 7/25/7 10/14/7
f 10/14/7 1/13/7 4/24/7
f 8/26/6 10/23/6 9/22/6
